<svg width="18" height="18" viewBox="0 0 18 18" fill="none" xmlns="http://www.w3.org/2000/svg">
<path d="M9 9C8.175 9 7.46875 8.70625 6.88125 8.11875C6.29375 7.53125 6 6.825 6 6C6 5.175 6.29375 4.46875 6.88125 3.88125C7.46875 3.29375 8.175 3 9 3C9.825 3 10.5312 3.29375 11.1187 3.88125C11.7062 4.46875 12 5.175 12 6C12 6.825 11.7062 7.53125 11.1187 8.11875C10.5312 8.70625 9.825 9 9 9ZM3 15V12.9C3 12.475 3.1095 12.0842 3.3285 11.7277C3.547 11.3717 3.8375 11.1 4.2 10.9125C4.975 10.525 5.7625 10.2342 6.5625 10.0402C7.3625 9.84675 8.175 9.75 9 9.75C9.825 9.75 10.6375 9.84675 11.4375 10.0402C12.2375 10.2342 13.025 10.525 13.8 10.9125C14.1625 11.1 14.453 11.3717 14.6715 11.7277C14.8905 12.0842 15 12.475 15 12.9V15H3Z" fill="#2C2C2C"/>
</svg>
